<?xml version="1.0" standalone="no"?>
<!DOCTYPE svg PUBLIC "-//W3C//DTD SVG 20010904//EN"
 "http://www.w3.org/TR/2001/REC-SVG-20010904/DTD/svg10.dtd">
<svg version="1.0" xmlns="http://www.w3.org/2000/svg"
 width="512.000000pt" height="512.000000pt" viewBox="0 0 512.000000 512.000000"
 preserveAspectRatio="xMidYMid meet">

<g transform="translate(0.000000,512.000000) scale(0.100000,-0.100000)"
fill="#000000" stroke="none">
<path d="M2510 4901 c-44 -14 -2214 -1102 -2234 -1119 -10 -10 -29 -39 -42
-67 l-24 -50 0 -1091 c0 -1209 -2 -1162 64 -1227 22 -22 387 -209 1132 -582
1053 -526 1101 -550 1154 -550 53 0 101 24 1154 550 749 375 1110 560 1132
583 67 65 65 17 62 1238 l-3 1099 -21 40 c-12 22 -30 48 -40 57 -11 9 -515
264 -1122 567 -1120 560 -1149 573 -1212 552z m345 -593 c157 -79 285 -145
285 -148 0 -3 -370 -190 -823 -416 l-822 -412 -295 148 -295 148 820 410 c451
226 826 411 832 411 7 1 141 -63 298 -141z m1068 -534 l292 -147 -828 -413
-827 -414 -290 145 c-160 80 -290 147 -290 150 0 5 1630 824 1643 824 4 1 139
-65 300 -145z m-1573 -2171 c0 -541 -3 -823 -10 -823 -5 0 -390 190 -855 422
l-845 423 0 827 0 828 855 -427 855 -428 0 -822z m2130 849 l0 -827 -855 -428
-855 -427 0 828 0 827 853 427 c468 235 853 427 855 427 1 1 2 -371 2 -827z"/>
</g>
</svg>
