<?xml version="1.0" standalone="no"?>
<!DOCTYPE svg PUBLIC "-//W3C//DTD SVG 20010904//EN"
 "http://www.w3.org/TR/2001/REC-SVG-20010904/DTD/svg10.dtd">
<svg version="1.0" xmlns="http://www.w3.org/2000/svg"
 width="225.000000pt" height="144.000000pt" viewBox="0 0 225.000000 144.000000"
 preserveAspectRatio="xMidYMid meet">

<g transform="translate(0.000000,144.000000) scale(0.100000,-0.100000)"
fill="#000000" stroke="none">
<path d="M875 1181 c-180 -47 -244 -269 -115 -399 l39 -38 -54 -27 c-136 -67
-215 -188 -230 -355 -13 -145 35 -245 130 -271 24 -7 139 -11 295 -11 229 0
259 2 297 19 55 26 101 89 109 152 l7 49 148 0 149 0 36 33 c41 38 52 76 47
170 -4 91 -33 154 -98 217 -30 27 -57 50 -62 50 -4 0 -14 4 -22 9 -12 8 -9 15
12 41 70 83 52 204 -40 266 -92 62 -217 24 -264 -81 -10 -22 -19 -53 -19 -70
0 -35 30 -104 53 -124 24 -19 21 -25 -17 -43 -18 -9 -50 -31 -69 -48 l-35 -31
-57 29 -56 29 25 16 c39 26 77 99 83 161 10 95 -43 193 -127 236 -43 22 -122
32 -165 21z m122 -62 c31 -12 79 -54 95 -84 74 -136 -52 -303 -200 -265 -60
15 -98 43 -122 90 -63 124 22 268 157 270 23 0 54 -5 70 -11z m514 -98 c33
-33 39 -45 39 -82 0 -76 -50 -128 -123 -129 -76 0 -127 50 -127 125 0 77 49
124 129 125 37 0 49 -5 82 -39z m43 -305 c84 -49 126 -130 126 -243 0 -58 -3
-68 -29 -94 l-29 -29 -136 0 -135 0 -6 38 c-15 99 -45 169 -96 227 l-32 36 23
24 c13 14 46 37 74 51 69 35 171 31 240 -10z m-481 -39 c74 -34 147 -103 183
-174 27 -54 29 -65 29 -176 l0 -119 -37 -34 -38 -34 -272 0 c-300 0 -306 1
-346 60 -22 32 -23 43 -20 135 3 81 9 110 30 156 85 184 294 267 471 186z"/>
</g>
</svg>
